<?xml version="1.0" standalone="no"?><!DOCTYPE svg PUBLIC "-//W3C//DTD SVG 1.1//EN" "http://www.w3.org/Graphics/SVG/1.1/DTD/svg11.dtd"><svg class="icon" width="200px" height="200.00px" viewBox="0 0 1024 1024" version="1.1" xmlns="http://www.w3.org/2000/svg"><path d="M778.24 988.16H248.832c-84.48 0-153.6-69.632-153.6-154.624V190.464C95.232 105.472 164.352 35.84 248.832 35.84h378.88c40.96 0 79.36 18.944 104.448 50.688l170.496 217.6c18.432 23.552 28.672 53.248 28.672 82.944v445.952c0.512 85.504-68.608 155.136-153.088 155.136z" fill="#F6F0FC" /><path d="M778.24 1024H248.832c-104.448 0-189.44-85.504-189.44-190.464V190.464C59.392 85.504 144.384 0 248.832 0h378.88c52.224 0 100.352 23.552 132.608 65.024l170.496 217.6c23.552 29.696 36.352 67.072 36.352 104.96v445.952c0.512 104.96-84.48 190.464-188.928 190.464zM248.832 72.192c-65.024 0-117.76 53.248-117.76 118.272v643.072c0 65.536 52.736 118.272 117.76 118.272h528.896c65.024 0 117.76-53.248 117.76-118.272V387.584c0-21.504-7.168-43.008-20.992-60.928l-170.496-217.6c-18.432-23.552-46.592-36.864-76.288-36.864h-378.88z" fill="#D59FFF" /><path d="M680.96 754.688c-74.752 0-123.392-56.832-123.392-144.384 0-83.968 51.2-144.896 121.856-144.896 32.768 0 61.44 12.8 83.456 37.888 27.648 30.72 40.448 76.288 35.328 122.88l-0.512 4.608h-177.152c1.536 33.792 17.92 68.096 59.904 68.096 28.16 0 45.056-12.8 53.76-40.448l1.024-3.584h60.416l-1.024 6.144c-10.752 56.832-55.808 93.696-113.664 93.696z m53.76-173.056c-3.584-30.72-22.528-59.904-55.296-59.904-31.744 0-54.784 24.576-57.856 59.904h113.152z m-250.88 165.888l-31.232-96.768H326.656L295.424 747.52H224.256l131.584-375.808h69.632l132.096 375.808H483.84z m-50.176-155.648l-43.52-137.216-44.032 137.216h87.552z" fill="#AE5BEF" /></svg>