<?xml version="1.0" standalone="no"?><!DOCTYPE svg PUBLIC "-//W3C//DTD SVG 1.1//EN" "http://www.w3.org/Graphics/SVG/1.1/DTD/svg11.dtd"><svg class="icon" width="200px" height="200.00px" viewBox="0 0 1024 1024" version="1.1" xmlns="http://www.w3.org/2000/svg"><path d="M778.24 988.16H248.832c-84.48 0-153.6-69.632-153.6-154.624V190.464C95.232 105.472 164.352 35.84 248.832 35.84h378.88c40.96 0 79.36 18.944 104.448 50.688l170.496 217.6c18.432 23.552 28.672 53.248 28.672 82.944v445.952c0.512 85.504-68.608 155.136-153.088 155.136z" fill="#E9FDEF" /><path d="M778.24 1024H248.832c-104.448 0-189.44-85.504-189.44-190.464V190.464C59.392 85.504 144.384 0 248.832 0h378.88c52.224 0 100.352 23.552 132.608 65.024l170.496 217.6c23.552 29.696 36.352 67.072 36.352 104.96v445.952c0.512 104.96-84.48 190.464-188.928 190.464zM248.832 72.192c-65.024 0-117.76 53.248-117.76 118.272v643.072c0 65.536 52.736 118.272 117.76 118.272h528.896c65.024 0 117.76-53.248 117.76-118.272V387.584c0-21.504-7.168-43.008-20.992-60.928l-170.496-217.6c-18.432-23.552-46.592-36.864-76.288-36.864h-378.88z" fill="#89F5A8" /><path d="M408.064 429.056c-12.288-12.8-32.768-13.312-45.056-1.024l-96.256 96.256c-12.288 12.288-12.288 32.768 0 45.056L362.496 665.6c12.288 11.776 32.256 11.776 44.544 0 12.8-12.288 13.312-32.768 1.024-45.056l-73.216-73.216 73.216-73.216c11.776-12.8 11.776-32.768 0-45.056zM759.808 524.288l-96.256-96.256c-12.288-11.776-32.256-11.776-44.544 0-12.8 12.288-13.312 32.768-1.024 45.056l73.216 73.216-73.216 73.216c-11.776 12.288-11.776 32.256 0 44.544 12.288 12.8 32.768 13.312 45.056 1.024l96.256-96.256c13.312-11.776 13.312-31.744 0.512-44.544zM573.952 406.016c-16.384-7.168-34.816 0-42.496 16.384L435.2 646.656c-6.656 15.872 0.512 34.304 16.384 41.472 16.384 7.168 34.816 0 42.496-16.384l96.256-224.256c7.168-15.872-0.512-34.304-16.384-41.472z" fill="#4DDB6B" /></svg>