<?xml version="1.0" standalone="no"?><!DOCTYPE svg PUBLIC "-//W3C//DTD SVG 1.1//EN" "http://www.w3.org/Graphics/SVG/1.1/DTD/svg11.dtd"><svg class="icon" width="200px" height="200.00px" viewBox="0 0 1024 1024" version="1.1" xmlns="http://www.w3.org/2000/svg"><path d="M783.36 988.16H253.952c-84.48 0-153.6-69.632-153.6-154.624V190.464C100.352 105.472 169.472 35.84 253.952 35.84h378.88c40.96 0 79.36 18.944 104.448 50.688l170.496 217.6c18.432 23.552 28.672 53.248 28.672 82.944v445.952c0.512 85.504-68.608 155.136-153.088 155.136z" fill="#E7E8FE" /><path d="M783.36 1024H253.952c-104.448 0-189.44-85.504-189.44-190.464V190.464C64.512 85.504 149.504 0 253.952 0h378.88c52.224 0 100.352 23.552 132.608 65.024l170.496 217.6c23.552 29.696 36.352 67.072 36.352 104.96v445.952c0.512 104.96-84.48 190.464-188.928 190.464zM253.952 72.192c-65.024 0-117.76 53.248-117.76 118.272v643.072c0 65.536 52.736 118.272 117.76 118.272h528.896c65.024 0 117.76-53.248 117.76-118.272V387.584c0-21.504-7.168-43.008-20.992-60.928l-170.496-217.6c-18.432-23.552-46.592-36.864-76.288-36.864h-378.88z" fill="#ACAEFF" /><path d="M513.024 403.456c-27.648-18.432-64.512-27.648-115.2-27.648-46.08 0-82.944 4.608-105.984 9.216v354.816h69.12v-133.632h32.256c50.688 0 96.768-13.824 124.416-41.472 18.432-18.432 32.256-46.08 32.256-82.944 0-32.256-13.824-59.904-36.864-78.336zM476.16 491.008c0 41.472-32.256 64.512-82.944 64.512-13.824 0-23.04-4.608-32.256-4.608V431.104c9.216-4.608 23.04-4.608 41.472-4.608 46.08 0 78.336 23.04 73.728 64.512zM581.632 742.4V484.352h55.808v19.968c19.968-16.896 48.128-25.6 82.432-25.6h22.528l-2.56 53.76h-21.504c-43.52 0-67.584 17.408-80.896 57.344V742.4h-55.808z" fill="#6274F9" /></svg>