<?xml version="1.0" standalone="no"?><!DOCTYPE svg PUBLIC "-//W3C//DTD SVG 1.1//EN" "http://www.w3.org/Graphics/SVG/1.1/DTD/svg11.dtd"><svg class="icon" width="200px" height="200.00px" viewBox="0 0 1024 1024" version="1.1" xmlns="http://www.w3.org/2000/svg"><path d="M776.704 988.16H247.296c-84.48 0-153.6-69.632-153.6-154.624V190.464C93.696 105.472 162.816 35.84 247.296 35.84h378.88c40.96 0 79.36 18.944 104.448 50.688L901.12 304.64c18.432 23.552 28.672 53.248 28.672 82.944v445.952c0.512 84.992-68.608 154.624-153.088 154.624z" fill="#E6F1FF" /><path d="M776.704 1024H247.296c-104.448 0-189.44-85.504-189.44-190.464V190.464C57.856 85.504 142.848 0 247.296 0h378.88c52.224 0 100.352 23.552 132.608 65.024l170.496 217.6c23.552 29.696 36.352 67.072 36.352 104.96v445.952c0.512 104.96-84.48 190.464-188.928 190.464zM247.296 72.192c-65.024 0-117.76 53.248-117.76 118.272v643.072c0 65.536 52.736 118.272 117.76 118.272h528.896c65.024 0 117.76-53.248 117.76-118.272V387.584c0-21.504-7.168-43.008-20.992-60.928l-170.496-217.6c-18.432-23.552-46.592-36.864-76.288-36.864h-378.88z" fill="#96C6FF" /><path d="M392.192 426.496c-18.432 0-32.256 0-41.472 4.608v119.808c9.216 0 18.432 4.608 32.256 4.608 50.688 0 82.944-23.04 82.944-64.512 4.608-41.472-27.648-64.512-73.728-64.512z m115.2 138.24c-27.648 27.648-73.728 41.472-124.416 41.472h-32.256v133.632H281.6V385.024c23.04-4.608 59.904-9.216 105.984-9.216 50.688 0 87.552 9.216 115.2 27.648 23.04 18.432 36.864 46.08 36.864 78.336 0 36.864-13.824 64.512-32.256 82.944z m124.416 179.712c-32.256 0-64.512-9.216-82.944-18.432l13.824-46.08c13.824 9.216 46.08 18.432 69.12 18.432 32.256 0 46.08-13.824 46.08-27.648 0-18.432-9.216-27.648-46.08-36.864-55.296-18.432-78.336-46.08-78.336-73.728 0-46.08 41.472-82.944 105.984-82.944 32.256 0 55.296 9.216 73.728 13.824l-13.824 46.08c-13.824-4.608-32.256-13.824-59.904-13.824-23.04 0-36.864 9.216-36.864 27.648 0 18.432 13.824 23.04 46.08 36.864 50.688 18.432 73.728 41.472 73.728 78.336 0 41.472-36.864 78.336-110.592 78.336z" fill="#0075FF" /></svg>