<?xml version="1.0" standalone="no"?><!DOCTYPE svg PUBLIC "-//W3C//DTD SVG 1.1//EN" "http://www.w3.org/Graphics/SVG/1.1/DTD/svg11.dtd"><svg class="icon" width="200px" height="200.00px" viewBox="0 0 1024 1024" version="1.1" xmlns="http://www.w3.org/2000/svg"><path d="M777.728 988.16H248.32c-84.48 0-153.6-69.632-153.6-154.624V190.464C94.72 105.472 163.84 35.84 248.32 35.84h378.88c40.96 0 79.36 18.944 104.448 50.688l170.496 217.6c18.432 23.552 28.672 53.248 28.672 82.944v445.952c0.512 85.504-68.608 155.136-153.088 155.136z" fill="#FFF0EB" /><path d="M777.728 1024H248.32c-104.448 0-189.44-85.504-189.44-190.464V190.464C58.88 85.504 143.872 0 248.32 0h378.88c52.224 0 100.352 23.552 132.608 65.024l170.496 217.6c23.552 29.696 36.352 67.072 36.352 104.96v445.952c0.512 104.96-84.48 190.464-188.928 190.464zM248.32 72.192c-65.024 0-117.76 53.248-117.76 118.272v643.072c0 65.536 52.736 118.272 117.76 118.272h528.896c65.024 0 117.76-53.248 117.76-118.272V387.584c0-21.504-7.168-43.008-20.992-60.928l-170.496-217.6c-18.432-23.552-46.592-36.864-76.288-36.864h-378.88z" fill="#FFC1AC" /><path d="M428.032 582.144c-3.584-4.096-7.68-7.68-12.288-10.752 41.472-15.872 62.464-45.568 62.464-88.576 0-29.184-9.728-52.224-28.672-68.096-18.944-15.872-45.056-24.064-77.824-24.064H267.264v334.848h54.784v-135.168h23.552c10.752 0 20.48 3.072 28.16 8.192 8.192 6.144 17.408 17.408 27.648 34.304l54.272 92.16h64.512l-66.56-106.496c-10.24-16.896-18.944-28.672-25.6-36.352z m-64-41.984h-42.496V439.808h43.008c18.944 0 33.28 4.096 43.008 12.288 9.216 8.192 13.824 19.456 13.824 34.304 0 16.384-5.12 29.184-15.872 38.912-10.24 10.24-24.064 14.848-41.472 14.848zM727.552 417.28c-20.48-17.92-49.152-26.624-84.992-26.624h-97.792v334.848H599.04v-120.32h40.448c32.768 0 60.928-9.728 82.944-29.184 23.552-20.992 35.84-48.128 35.84-81.408 0.512-33.792-10.24-59.392-30.72-77.312z m-43.008 122.368c-11.776 10.24-29.696 15.36-53.248 15.36H599.04V440.32h35.84c45.568 0 67.072 17.408 67.072 55.296 0 19.456-5.632 34.304-17.408 44.032z" fill="#FF6A38" /></svg>