<?xml version="1.0" standalone="no"?><!DOCTYPE svg PUBLIC "-//W3C//DTD SVG 1.1//EN" "http://www.w3.org/Graphics/SVG/1.1/DTD/svg11.dtd"><svg class="icon" width="200px" height="200.00px" viewBox="0 0 1024 1024" version="1.1" xmlns="http://www.w3.org/2000/svg"><path d="M776.704 988.16H247.296c-84.48 0-153.6-69.632-153.6-154.624V190.464C93.696 105.472 162.816 35.84 247.296 35.84h378.88c40.96 0 79.36 18.944 104.448 50.688L901.12 304.64c18.432 23.552 28.672 53.248 28.672 82.944v445.952c0.512 84.992-68.608 154.624-153.088 154.624z" fill="#E7E8FE" /><path d="M776.704 1024H247.296c-104.448 0-189.44-85.504-189.44-190.464V190.464C57.856 85.504 142.848 0 247.296 0h378.88c52.224 0 100.352 23.552 132.608 65.024l170.496 217.6c23.552 29.696 36.352 67.072 36.352 104.96v445.952c0.512 104.96-84.48 190.464-188.928 190.464zM247.296 72.192c-65.024 0-117.76 53.248-117.76 118.272v643.072c0 65.536 52.736 118.272 117.76 118.272h528.896c65.024 0 117.76-53.248 117.76-118.272V387.584c0-21.504-7.168-43.008-20.992-60.928l-170.496-217.6c-18.432-23.552-46.592-36.864-76.288-36.864h-378.88z" fill="#ACAEFF" /><path d="M523.264 760.832c-49.152 0-89.088-10.24-117.76-30.208-34.304-24.576-53.248-63.488-56.832-115.2l-0.512-5.632h70.656l0.512 4.608c4.096 30.208 14.848 52.224 31.744 64.512 15.36 11.776 39.936 17.408 71.68 17.408 28.672 0 52.224-5.12 70.144-15.36 16.384-9.216 24.576-21.504 24.576-37.888 0-20.48-11.776-35.84-35.328-48.64-9.216-4.096-35.84-13.312-79.36-26.624-51.2-16.384-81.408-27.136-93.184-33.792-32.768-19.456-48.64-48.128-48.64-84.992 0-36.864 15.872-66.56 46.592-87.552C436.736 343.04 473.6 332.8 517.12 332.8c48.128 0 86.016 10.24 113.152 30.72 29.184 21.504 46.08 55.296 49.664 100.352l0.512 5.632h-70.656l-1.024-4.096c-5.12-25.088-15.36-43.008-29.696-53.248-14.336-10.752-36.864-16.384-65.536-16.384-25.088 0-45.056 3.584-58.368 11.264-15.872 8.192-23.04 20.992-23.04 39.424 0 15.872 8.704 28.672 27.136 38.4 9.728 5.632 32.768 13.824 69.12 24.576 56.832 17.408 91.648 30.72 106.496 39.936 35.84 22.016 54.272 52.736 54.272 91.136 0 37.376-14.848 67.072-44.544 89.088-29.184 20.992-69.632 31.232-121.344 31.232z" fill="#6274F9" /></svg>