<?xml version="1.0" standalone="no"?><!DOCTYPE svg PUBLIC "-//W3C//DTD SVG 1.1//EN" "http://www.w3.org/Graphics/SVG/1.1/DTD/svg11.dtd"><svg class="icon" width="200px" height="200.00px" viewBox="0 0 1024 1024" version="1.1" xmlns="http://www.w3.org/2000/svg"><path d="M776.704 988.16H247.296c-84.48 0-153.6-69.632-153.6-154.624V190.464C93.696 105.472 162.816 35.84 247.296 35.84h378.88c40.96 0 79.36 18.944 104.448 50.688L901.12 304.64c18.432 23.552 28.672 53.248 28.672 82.944v445.952c0.512 84.992-68.608 154.624-153.088 154.624z" fill="#FFEEEF" /><path d="M776.704 1024H247.296c-104.448 0-189.44-85.504-189.44-190.464V190.464C57.856 85.504 142.848 0 247.296 0h378.88c52.224 0 100.352 23.552 132.608 65.024l170.496 217.6c23.552 29.696 36.352 67.072 36.352 104.96v445.952c0.512 104.96-84.48 190.464-188.928 190.464zM247.296 72.192c-65.024 0-117.76 53.248-117.76 118.272v643.072c0 65.536 52.736 118.272 117.76 118.272h528.896c65.024 0 117.76-53.248 117.76-118.272V387.584c0-21.504-7.168-43.008-20.992-60.928l-170.496-217.6c-18.432-23.552-46.592-36.864-76.288-36.864h-378.88z" fill="#FFB8BE" /><path d="M671.744 418.304c14.336-5.12 29.696-7.168 45.056-7.168V310.272c-68.608-2.048-134.144 28.672-176.128 82.944-17.408 22.528-32.256 47.104-44.032 73.728L464.384 547.84c-8.192 24.576-18.432 49.152-29.696 72.704-8.192 19.456-18.432 36.864-30.72 54.272a97.28 97.28 0 0 1-39.936 32.256c-17.408 8.192-36.864 12.288-56.32 12.288v102.4c68.608 2.048 133.632-28.672 176.128-82.944 13.312-18.432 25.6-37.888 35.84-58.368l27.648-64.512h139.264v-100.864H588.8c6.144-15.36 14.336-29.696 23.552-44.032 7.168-12.288 16.384-22.528 26.624-31.744 8.704-9.728 19.968-16.896 32.768-20.992z" fill="#FF5462" /></svg>