<?xml version="1.0" standalone="no"?><!DOCTYPE svg PUBLIC "-//W3C//DTD SVG 1.1//EN" "http://www.w3.org/Graphics/SVG/1.1/DTD/svg11.dtd"><svg class="icon" width="200px" height="200.00px" viewBox="0 0 1024 1024" version="1.1" xmlns="http://www.w3.org/2000/svg"><path d="M783.36 988.16H253.952c-84.48 0-153.6-69.632-153.6-154.624V190.464C100.352 105.472 169.472 35.84 253.952 35.84h378.88c40.96 0 79.36 18.944 104.448 50.688l170.496 217.6c18.432 23.552 28.672 53.248 28.672 82.944v445.952c0.512 85.504-68.608 155.136-153.088 155.136z" fill="#E6F1FF" /><path d="M783.36 1024H253.952c-104.448 0-189.44-85.504-189.44-190.464V190.464C64.512 85.504 149.504 0 253.952 0h378.88c52.224 0 100.352 23.552 132.608 65.024l170.496 217.6c23.552 29.696 36.352 67.072 36.352 104.96v445.952c0.512 104.96-84.48 190.464-188.928 190.464zM253.952 72.192c-65.024 0-117.76 53.248-117.76 118.272v643.072c0 65.536 52.736 118.272 117.76 118.272h528.896c65.024 0 117.76-53.248 117.76-118.272V387.584c0-21.504-7.168-43.008-20.992-60.928l-170.496-217.6c-18.432-23.552-46.592-36.864-76.288-36.864h-378.88z" fill="#96C6FF" /><path d="M741.376 531.968l-13.312-13.312c-5.12-5.12-11.264-7.68-18.432-7.68s-13.312 2.56-18.432 7.68L520.704 691.2l-2.56 2.56-148.992-148.992 143.36-143.36 57.856 57.856L497.152 532.48c-6.656 6.656-6.656 17.92 0 25.088l24.064 24.064c6.656 6.656 18.432 6.656 25.088 0L650.24 477.696c10.24-10.24 10.24-26.624 0-36.864L537.088 327.68c-10.24-10.24-26.624-10.24-36.864 0l-204.288 204.288c-5.12 5.12-7.68 11.264-7.68 18.432s2.56 13.312 7.68 18.432L500.224 773.12c5.12 5.12 11.776 7.68 18.432 7.68 6.656 0 13.312-2.56 18.432-7.68l204.288-204.288c10.24-10.24 10.24-26.624 0-36.864z" fill="#0075FF" /></svg>