<?xml version="1.0" standalone="no"?><!DOCTYPE svg PUBLIC "-//W3C//DTD SVG 1.1//EN" "http://www.w3.org/Graphics/SVG/1.1/DTD/svg11.dtd"><svg class="icon" width="200px" height="200.00px" viewBox="0 0 1024 1024" version="1.1" xmlns="http://www.w3.org/2000/svg"><path d="M786.432 988.16H257.024c-84.48 0-153.6-69.632-153.6-154.624V190.464C103.424 105.472 172.544 35.84 257.024 35.84h378.88c40.96 0 79.36 18.944 104.448 50.688l170.496 217.6c18.432 23.552 28.672 53.248 28.672 82.944v445.952c0.512 85.504-68.608 155.136-153.088 155.136z" fill="#F9EEFE" /><path d="M786.432 1024H257.024c-104.448 0-189.44-85.504-189.44-190.464V190.464C67.584 85.504 152.576 0 257.024 0h378.88c52.224 0 100.352 23.552 132.608 65.024l170.496 217.6c23.552 29.696 36.352 67.072 36.352 104.96v445.952c0.512 104.96-84.48 190.464-188.928 190.464zM257.024 72.192c-65.024 0-117.76 53.248-117.76 118.272v643.072c0 65.536 52.736 118.272 117.76 118.272h528.896c65.024 0 117.76-53.248 117.76-118.272V387.584c0-21.504-7.168-43.008-20.992-60.928l-170.496-217.6c-18.432-23.552-46.592-36.864-76.288-36.864h-378.88z" fill="#EAB8FF" /><path d="M540.16 423.936l-90.112 148.992 96.256 158.208c0.512 1.024 1.024 2.56 0.512 3.584-0.512 1.024-1.536 0.512-3.584 0.512H474.624c-4.608 0-8.192 0-10.24-3.584-6.656-12.8-12.8-25.088-19.456-37.376-6.656-12.288-13.312-25.088-20.48-37.888s-14.336-26.112-21.504-39.424h-0.512c-6.656 12.8-13.312 25.6-19.968 38.912-7.168 12.8-13.824 25.6-20.48 38.4-6.656 12.8-13.824 25.6-20.992 37.888-1.536 3.072-3.584 3.072-6.656 3.072h-66.56c-1.536 0-2.048 0.512-2.048-1.024 0-1.024 0-2.56 0.512-3.584l93.696-153.6-91.136-153.6c-1.024-1.536-1.024-2.56-0.512-3.072 0.512-1.024 2.048-1.536 3.072-1.024h68.096c1.536 0 3.072 0 4.608 0.512 1.024 0.512 2.048 1.536 3.072 2.56 5.632 12.8 12.288 25.6 19.456 38.912l21.504 38.4c7.168 12.8 13.824 25.6 19.968 38.4h0.512c6.656-13.312 12.8-26.112 19.456-38.912 6.656-12.8 13.312-25.088 20.48-37.888s13.824-25.6 19.968-37.888c0.512-1.024 1.024-2.048 2.048-3.072 1.024-0.512 2.56-1.024 4.096-0.512H537.6c1.536-0.512 3.072 0.512 3.584 2.048 0 0.512 0 1.536-1.024 2.048z m139.264 317.44c-22.528 0.512-44.544-4.096-64.512-13.312-18.944-8.704-34.816-23.04-45.056-40.96-10.752-18.432-16.384-40.96-16.384-68.608 0-22.016 5.632-44.032 16.384-63.488 11.264-19.456 28.16-35.84 48.128-46.592 20.992-11.776 46.592-17.408 76.288-17.408h6.144c2.56 0 5.632 0.512 9.216 0.512V396.288c0-2.048 1.024-3.584 3.072-3.584h60.928c1.536 0 2.56 1.024 3.072 2.048v286.72c0 5.632 0 11.264 0.512 17.92 0.512 6.656 1.024 12.288 1.024 17.408 0 2.048-1.024 4.096-3.072 4.608-15.872 6.656-32.256 11.264-49.152 14.336-15.36 4.096-31.232 5.632-46.592 5.632z m29.696-59.904v-132.096c-2.56-0.512-5.12-1.024-8.192-1.536-3.072-0.512-6.656-0.512-9.728-0.512-11.776 0-23.552 2.56-33.792 7.68s-18.944 12.8-25.6 22.528c-6.656 9.728-9.728 22.528-9.728 38.4 0 10.752 1.536 20.992 5.12 31.232 3.072 8.192 7.68 15.36 13.824 21.504 5.632 5.632 12.8 9.728 20.48 12.288 8.192 2.56 16.384 4.096 25.088 4.096 4.608 0 8.704 0 12.8-0.512 2.56-1.536 6.144-2.048 9.728-3.072z" fill="#C753F8" /></svg>